<svg xmlns="http://www.w3.org/2000/svg" cellid="2" stopsearch="true" transform="translate(0.5,0.5)" style="visibility: visible;">
<path d="M 19.2 5.8 L 21.2 2.8 L 23.2 5.8 M 21.2 -0.2 L 21.2 2.8 L 18.2 1.3 M 21.2 2.8 L 24.2 1.3" fill="none" stroke="white" stroke-linejoin="round" stroke-linecap="round" stroke-miterlimit="10" pointer-events="stroke" visibility="hidden" stroke-width="9">
</path>
<path d="M 19.2 5.8 L 21.2 2.8 L 23.2 5.8 M 21.2 -0.2 L 21.2 2.8 L 18.2 1.3 M 21.2 2.8 L 24.2 1.3" fill="none" stroke="#000000" stroke-linejoin="round" stroke-linecap="round" stroke-miterlimit="10">
</path>
<path d="M 0.5 21.2 L 23.5 21.2 L 12 0.5 Z" fill="#ffffff" stroke="#000000" stroke-linejoin="round" stroke-linecap="round" stroke-miterlimit="10" pointer-events="all">
</path>
<path d="M 0.5 21.2 L 23.5 21.2 L 12 0.5 Z" fill="none" stroke="white" stroke-opacity="0.8" stroke-width="16" stroke-linejoin="round" stroke-linecap="round" stroke-miterlimit="10" pointer-events="stroke" visibility="hidden">
</path>
<path d="M 0.5 21.2 L 23.5 21.2 L 12 0.5 Z" fill="none" stroke="#4286f4" stroke-opacity="0.8" stroke-width="8" stroke-linejoin="round" stroke-linecap="round" stroke-miterlimit="10" pointer-events="stroke">
</path>
<path d="M 19.2 5.8 L 21.2 2.8 L 23.2 5.8 M 21.2 -0.2 L 21.2 2.8 L 18.2 1.3 M 21.2 2.8 L 24.2 1.3" fill="none" stroke="white" stroke-opacity="0.8" stroke-width="16" stroke-linejoin="round" stroke-linecap="round" stroke-miterlimit="10" pointer-events="stroke" visibility="hidden">
</path>
<path d="M 19.2 5.8 L 21.2 2.8 L 23.2 5.8 M 21.2 -0.2 L 21.2 2.8 L 18.2 1.3 M 21.2 2.8 L 24.2 1.3" fill="none" stroke="#4286f4" stroke-opacity="0.8" stroke-width="8" stroke-linejoin="round" stroke-linecap="round" stroke-miterlimit="10" pointer-events="stroke">
</path>
</svg>

